<svg width="30" height="30" viewBox="0 0 30 30" fill="none" xmlns="http://www.w3.org/2000/svg">
<circle cx="15" cy="15" r="15" fill="#C4C4C4"/>
<g clip-path="url(#clip0)">
<path d="M21.6086 10.5095H19.1421V10.2561C19.1421 9.12405 18.2233 8.20526 17.0913 8.20526H13.1686C12.0361 8.20526 11.1178 9.12405 11.1178 10.2561V10.5095H8.65083C7.5183 10.5095 6.59998 11.4278 6.59998 12.5604V20.0045C6.59998 21.1366 7.5183 22.0554 8.65083 22.0554H21.6095C22.742 22.0554 23.6604 21.1366 23.6604 20.0045V12.5604C23.6595 11.4274 22.7411 10.5095 21.6086 10.5095ZM15.1293 19.928C12.9927 19.928 11.2554 18.1907 11.2554 16.0541C11.2554 13.918 12.9927 12.1803 15.1293 12.1803C17.2658 12.1803 19.0031 13.9176 19.0031 16.0541C19.0031 18.1907 17.2653 19.928 15.1293 19.928ZM17.1801 16.0541C17.1801 17.1839 16.2595 18.105 15.1293 18.105C13.999 18.105 13.0784 17.1839 13.0784 16.0541C13.0784 14.9239 13.999 14.0033 15.1293 14.0033C16.2595 14.0033 17.1801 14.9239 17.1801 16.0541Z" fill="black"/>
</g>
<defs>
<clipPath id="clip0">
<rect width="17.0604" height="17.0604" fill="white" transform="translate(6.59998 6.59998)"/>
</clipPath>
</defs>
</svg>
