<svg width="375" height="164" viewBox="0 0 375 164" fill="none" xmlns="http://www.w3.org/2000/svg">
<rect width="375" height="164" fill="#C4C4C4"/>
<path d="M215.221 61.7298H204.667V60.6455C204.667 55.8015 200.735 51.8701 195.891 51.8701H179.107C174.261 51.8701 170.331 55.8015 170.331 60.6455V61.7298H159.775C154.929 61.7298 151 65.6592 151 70.5052V102.358C151 107.202 154.929 111.134 159.775 111.134H215.225C220.071 111.134 224 107.202 224 102.358V70.5052C223.996 65.6573 220.067 61.7298 215.221 61.7298ZM187.496 102.031C178.354 102.031 170.92 94.5967 170.92 85.4547C170.92 76.3145 178.354 68.8788 187.496 68.8788C196.638 68.8788 204.072 76.3126 204.072 85.4547C204.072 94.5967 196.636 102.031 187.496 102.031ZM196.272 85.4547C196.272 90.289 192.332 94.2301 187.496 94.2301C182.66 94.2301 178.721 90.289 178.721 85.4547C178.721 80.6184 182.66 76.6792 187.496 76.6792C192.332 76.6792 196.272 80.6184 196.272 85.4547Z" fill="white"/>
</svg>
