<svg width="50" height="50" viewBox="0 0 50 50" fill="none" xmlns="http://www.w3.org/2000/svg">
<circle cx="25" cy="25" r="25" fill="#C4C4C4"/>
<g clip-path="url(#clip0)">
<path d="M36.0144 17.516H31.9036V17.0937C31.9036 15.2069 30.3722 13.6756 28.4855 13.6756H21.9478C20.0602 13.6756 18.5297 15.2069 18.5297 17.0937V17.516H14.4181C12.5305 17.516 11 19.0466 11 20.9341V33.341C11 35.2278 12.5305 36.7591 14.4181 36.7591H36.0159C37.9035 36.7591 39.434 35.2278 39.434 33.341V20.9341C39.4325 19.0458 37.9019 17.516 36.0144 17.516ZM25.2155 33.2134C21.6546 33.2134 18.7591 30.3179 18.7591 26.757C18.7591 23.1969 21.6546 20.3006 25.2155 20.3006C28.7764 20.3006 31.6719 23.1961 31.6719 26.757C31.6719 30.3179 28.7756 33.2134 25.2155 33.2134ZM28.6336 26.757C28.6336 28.64 27.0992 30.1751 25.2155 30.1751C23.3317 30.1751 21.7974 28.64 21.7974 26.757C21.7974 24.8733 23.3317 23.3389 25.2155 23.3389C27.0992 23.3389 28.6336 24.8733 28.6336 26.757Z" fill="white"/>
</g>
<defs>
<clipPath id="clip0">
<rect width="28.434" height="28.434" fill="white" transform="translate(11 11)"/>
</clipPath>
</defs>
</svg>
