<svg width="25" height="25" viewBox="0 0 25 25" fill="none" xmlns="http://www.w3.org/2000/svg">
<circle cx="12.5" cy="12.5" r="12.5" fill="#C4C4C4"/>
<g clip-path="url(#clip0)">
<path d="M18.0072 8.75792H15.9518V8.54676C15.9518 7.60336 15.1861 6.83771 14.2427 6.83771H10.9739C10.0301 6.83771 9.26484 7.60336 9.26484 8.54676V8.75792H7.20905C6.26527 8.75792 5.5 9.52319 5.5 10.467V16.6704C5.5 17.6138 6.26527 18.3795 7.20905 18.3795H18.0079C18.9517 18.3795 19.717 17.6138 19.717 16.6704V10.467C19.7162 9.52281 18.951 8.75792 18.0072 8.75792ZM12.6077 16.6066C10.8273 16.6066 9.37954 15.1589 9.37954 13.3784C9.37954 11.5984 10.8273 10.1502 12.6077 10.1502C14.3882 10.1502 15.8359 11.598 15.8359 13.3784C15.8359 15.1589 14.3878 16.6066 12.6077 16.6066ZM14.3168 13.3784C14.3168 14.3199 13.5496 15.0875 12.6077 15.0875C11.6659 15.0875 10.8987 14.3199 10.8987 13.3784C10.8987 12.4365 11.6659 11.6694 12.6077 11.6694C13.5496 11.6694 14.3168 12.4365 14.3168 13.3784Z" fill="black"/>
</g>
<defs>
<clipPath id="clip0">
<rect width="14.217" height="14.217" fill="white" transform="translate(5.5 5.5)"/>
</clipPath>
</defs>
</svg>
