<svg width="150" height="150" viewBox="0 0 150 150" fill="none" xmlns="http://www.w3.org/2000/svg">
<rect width="150" height="150" rx="10" fill="#C4C4C4"/>
<g clip-path="url(#clip0)">
<path d="M94.7462 60.9171H87.2283V60.1448C87.2283 56.6942 84.4279 53.8938 80.9773 53.8938H69.0213C65.5693 53.8938 62.7703 56.6942 62.7703 60.1448V60.9171H55.251C51.7991 60.9171 49 63.7162 49 67.1681V89.8579C49 93.3084 51.7991 96.1089 55.251 96.1089H94.749C98.2009 96.1089 101 93.3084 101 89.8579V67.1681C100.997 63.7148 98.1982 60.9171 94.7462 60.9171ZM74.9972 89.6245C68.4851 89.6245 63.1898 84.3292 63.1898 77.8171C63.1898 71.3063 68.4851 66.0096 74.9972 66.0096C81.5094 66.0096 86.8047 71.3049 86.8047 77.8171C86.8047 84.3292 81.508 89.6245 74.9972 89.6245ZM81.2482 77.8171C81.2482 81.2607 78.4422 84.0681 74.9972 84.0681C71.5522 84.0681 68.7462 81.2607 68.7462 77.8171C68.7462 74.3721 71.5522 71.5661 74.9972 71.5661C78.4422 71.5661 81.2482 74.3721 81.2482 77.8171Z" fill="white"/>
</g>
<defs>
<clipPath id="clip0">
<rect x="49" y="49" width="52" height="52" rx="7.12329" fill="white"/>
</clipPath>
</defs>
</svg>
