<svg width="23" height="13" viewBox="0 0 23 13" fill="none" xmlns="http://www.w3.org/2000/svg">
<path d="M13.4076 0.387259C9.26607 -0.219929 5.02936 1.19835 2.07951 4.17991C1.38623 4.88226 0.774512 5.66209 0.253418 6.49538C2.28795 9.77102 5.75889 12.0552 9.59232 12.6126C13.7339 13.2152 17.9706 11.8015 20.9204 8.81991C21.6137 8.11757 22.23 7.33774 22.7465 6.50445C20.712 3.22835 17.2411 0.944602 13.4076 0.387259V0.387259ZM15.366 7.47504C14.9247 9.22048 13.2903 10.4829 11.4773 10.4829C11.2272 10.4829 10.9843 10.4602 10.7559 10.4158C8.72776 10.0325 7.28728 8.05096 7.54782 5.99876C7.79342 4.0467 9.53296 2.51695 11.509 2.51695C11.5915 2.51695 11.674 2.5174 11.7515 2.52238C13.8087 2.65016 15.4829 4.43457 15.4829 6.49991C15.4829 6.82254 15.4435 7.1506 15.366 7.47504Z" fill="black"/>
</svg>
