<svg width="24" height="24" viewBox="0 0 24 24" fill="none" xmlns="http://www.w3.org/2000/svg">
<g clip-path="url(#clip0)">
<path d="M23.9734 7.05606C23.9172 5.78085 23.711 4.90416 23.4156 4.14449C23.1108 3.33811 22.642 2.61617 22.0277 2.01602C21.4276 1.40652 20.7009 0.932921 19.9038 0.632936C19.1398 0.337529 18.2677 0.131312 16.9924 0.0750879C15.7077 0.0141019 15.2999 0 12.0414 0C8.78296 0 8.3751 0.0141019 7.09513 0.0703262C5.81991 0.126551 4.94322 0.332951 4.18373 0.628174C3.37718 0.932921 2.65523 1.40176 2.05508 2.01602C1.44559 2.61617 0.972167 3.34288 0.671998 4.13991C0.376592 4.90416 0.170375 5.77609 0.11415 7.0513C0.0531644 8.33604 0.0390625 8.74389 0.0390625 12.0023C0.0390625 15.2608 0.0531644 15.6686 0.109389 16.9486C0.165613 18.2238 0.372013 19.1005 0.66742 19.8602C0.972167 20.6666 1.44559 21.3885 2.05508 21.9887C2.65523 22.5982 3.38194 23.0718 4.17897 23.3717C4.94322 23.6672 5.81515 23.8734 7.09055 23.9296C8.37034 23.986 8.77838 23.9999 12.0368 23.9999C15.2953 23.9999 15.7031 23.986 16.9831 23.9296C18.2583 23.8734 19.135 23.6672 19.8945 23.3717C21.5074 22.7482 22.7826 21.4729 23.4062 19.8602C23.7015 19.096 23.9079 18.2238 23.9641 16.9486C24.0203 15.6686 24.0344 15.2608 24.0344 12.0023C24.0344 8.74389 24.0296 8.33604 23.9734 7.05606ZM21.8122 16.8549C21.7605 18.027 21.5636 18.6599 21.3996 19.0818C20.9963 20.1274 20.1665 20.9572 19.1209 21.3605C18.699 21.5246 18.0614 21.7215 16.8939 21.7729C15.628 21.8293 15.2484 21.8433 12.0462 21.8433C8.84394 21.8433 8.45953 21.8293 7.19823 21.7729C6.02613 21.7215 5.39319 21.5246 4.97124 21.3605C4.45093 21.1682 3.97733 20.8634 3.59292 20.4649C3.1944 20.0758 2.88965 19.6069 2.69736 19.0866C2.53326 18.6647 2.33639 18.027 2.28492 16.8596C2.22852 15.5937 2.2146 15.2139 2.2146 12.0117C2.2146 8.80946 2.22852 8.42505 2.28492 7.16393C2.33639 5.99183 2.53326 5.35889 2.69736 4.93694C2.88965 4.41645 3.1944 3.94303 3.59768 3.55843C3.98667 3.15992 4.45551 2.85517 4.976 2.66306C5.39796 2.49896 6.03565 2.30208 7.203 2.25044C8.46887 2.19421 8.8487 2.18011 12.0507 2.18011C15.2577 2.18011 15.6374 2.19421 16.8987 2.25044C18.0708 2.30208 18.7037 2.49896 19.1257 2.66306C19.646 2.85517 20.1196 3.15992 20.504 3.55843C20.9025 3.94761 21.2073 4.41645 21.3996 4.93694C21.5636 5.35889 21.7605 5.99641 21.8122 7.16393C21.8684 8.42981 21.8825 8.80946 21.8825 12.0117C21.8825 15.2139 21.8684 15.589 21.8122 16.8549Z" fill="black"/>
<path d="M12.0447 5.83696C8.64098 5.83696 5.87939 8.59836 5.87939 12.0022C5.87939 15.4061 8.64098 18.1675 12.0447 18.1675C15.4485 18.1675 18.2099 15.4061 18.2099 12.0022C18.2099 8.59836 15.4485 5.83696 12.0447 5.83696ZM12.0447 16.0015C9.83653 16.0015 8.04541 14.2105 8.04541 12.0022C8.04541 9.79391 9.83653 8.00297 12.0447 8.00297C14.253 8.00297 16.0439 9.79391 16.0439 12.0022C16.0439 14.2105 14.253 16.0015 12.0447 16.0015Z" fill="black"/>
<path d="M19.8944 5.59361C19.8944 6.38844 19.25 7.03291 18.4549 7.03291C17.6601 7.03291 17.0156 6.38844 17.0156 5.59361C17.0156 4.79859 17.6601 4.1543 18.4549 4.1543C19.25 4.1543 19.8944 4.79859 19.8944 5.59361Z" fill="black"/>
</g>
<defs>
<clipPath id="clip0">
<rect width="24" height="24" fill="white"/>
</clipPath>
</defs>
</svg>
