<svg width="9" height="9" viewBox="0 0 9 9" fill="none" xmlns="http://www.w3.org/2000/svg">
<g clip-path="url(#clip0_201:80)">
<path d="M5.40045 0.617836L3.57114 2.44712C3.56761 2.45064 3.56541 2.45491 3.5619 2.45846C4.01255 2.39282 4.4755 2.43782 4.90466 2.60517L6.1462 1.36362C6.55751 0.952312 7.22645 0.952312 7.63776 1.36362C8.04907 1.7749 8.04907 2.44387 7.63776 2.85514C7.56762 2.92532 5.7027 4.79023 5.80847 4.68443C5.39391 5.09903 4.71378 5.08129 4.31691 4.68443C4.11137 4.47889 3.77672 4.47889 3.57114 4.68443L3.25098 5.0046C3.33978 5.15549 3.44159 5.30068 3.57114 5.43023C4.35232 6.21141 5.69694 6.27381 6.54292 5.43948C6.54645 5.43597 6.55071 5.43375 6.55426 5.43023L8.38354 3.60095C9.20729 2.77717 9.20729 1.44162 8.38354 0.617836C7.55976 -0.205945 6.22423 -0.205945 5.40045 0.617836Z" fill="white"/>
<path d="M4.10168 6.3911L2.85613 7.63666C2.44485 8.04797 1.77588 8.04797 1.3646 7.63666C0.953293 7.22535 0.953293 6.55641 1.3646 6.1451C1.43474 6.07496 3.30365 4.20605 3.19788 4.31182C3.61244 3.89726 4.29257 3.91496 4.68944 4.31182C4.89498 4.5174 5.22965 4.5174 5.43521 4.31182L5.75537 3.99165C5.66657 3.84076 5.56476 3.69556 5.43521 3.56605C4.65553 2.78633 3.31189 2.71999 2.46343 3.55678C2.4599 3.5603 2.45564 3.56251 2.45209 3.56605L0.618799 5.39934C-0.204947 6.22309 -0.204982 7.55868 0.618799 8.38246C1.44258 9.20621 2.77817 9.20621 3.60191 8.38246L5.43519 6.54915C5.43872 6.54563 5.44092 6.5414 5.44443 6.53781C4.99378 6.60345 4.53085 6.55845 4.10168 6.3911Z" fill="white"/>
</g>
<defs>
<clipPath id="clip0_201:80">
<rect width="9" height="9" fill="white"/>
</clipPath>
</defs>
</svg>
