<svg width="15" height="15" viewBox="0 0 15 15" fill="none" xmlns="http://www.w3.org/2000/svg">
<g clip-path="url(#clip0_201:160)">
<path d="M8.99749 1.02973L5.94865 4.07854C5.94276 4.08439 5.9391 4.09151 5.93324 4.09743C6.68433 3.98804 7.45592 4.06304 8.17117 4.34194L10.2404 2.27271C10.9259 1.58719 12.0408 1.58719 12.7263 2.27271C13.4119 2.95816 13.4119 4.07311 12.7263 4.75857C12.6094 4.87553 9.50125 7.98372 9.67753 7.80738C8.98659 8.49838 7.85304 8.46882 7.1916 7.80738C6.84903 7.46481 6.29128 7.46481 5.94865 7.80738L5.41504 8.341C5.56305 8.59248 5.73273 8.83447 5.94865 9.05039C7.25061 10.3523 9.49164 10.4563 10.9016 9.0658C10.9075 9.05994 10.9146 9.05625 10.9205 9.05039L13.9693 6.00158C15.3422 4.62861 15.3422 2.4027 13.9693 1.02973C12.5963 -0.343242 10.3705 -0.343242 8.99749 1.02973Z" fill="black"/>
<path d="M6.83548 10.6516L4.75956 12.7276C4.0741 13.4131 2.95915 13.4131 2.27369 12.7276C1.58817 12.042 1.58817 10.9271 2.27369 10.2416C2.39058 10.1247 5.50543 7.00988 5.32915 7.18616C6.02009 6.49522 7.15364 6.52472 7.81507 7.18616C8.15764 7.52879 8.71543 7.52879 9.05802 7.18616L9.59164 6.65255C9.44363 6.40106 9.27394 6.15907 9.05802 5.94321C7.75856 4.64369 5.51917 4.53312 4.10507 5.92777C4.09918 5.93363 4.09209 5.93732 4.08617 5.94321L1.03068 8.9987C-0.342229 10.3716 -0.342288 12.5976 1.03068 13.9706C2.40365 15.3435 4.62963 15.3435 6.00254 13.9706L9.05799 10.915C9.06388 10.9092 9.06755 10.9021 9.07341 10.8961C8.32232 11.0055 7.55076 10.9305 6.83548 10.6516Z" fill="black"/>
</g>
<defs>
<clipPath id="clip0_201:160">
<rect width="15" height="15" fill="white"/>
</clipPath>
</defs>
</svg>
