<svg width="24" height="24" viewBox="0 0 24 24" fill="none" xmlns="http://www.w3.org/2000/svg">
<circle cx="12" cy="12" r="12" fill="black"/>
<path d="M19.5834 19.0196C19.5834 19.2763 19.3754 19.4844 19.1187 19.4844H16.81C16.5534 19.4844 16.3453 19.2763 16.3453 19.0196V14.7892C16.3453 14.1581 16.5304 12.0238 14.696 12.0238C13.2732 12.0238 12.9846 13.4847 12.9266 14.1403V19.0196C12.9266 19.2763 12.7186 19.4844 12.4619 19.4844H10.229C9.97233 19.4844 9.76425 19.2763 9.76425 19.0196V9.9192C9.76425 9.66256 9.97233 9.45448 10.229 9.45448H12.4619C12.7185 9.45448 12.9266 9.66256 12.9266 9.9192V10.706C13.4542 9.91428 14.2383 9.30314 15.9077 9.30314C19.5838 9.30314 19.5836 12.7181 19.5834 14.6224V14.6546V19.0196Z" fill="white"/>
<path d="M8.33973 18.9789C8.33973 19.2581 8.11345 19.4844 7.8343 19.4844H5.68279C5.40364 19.4844 5.17736 19.2581 5.17736 18.9789V9.95991C5.17736 9.68076 5.40364 9.45448 5.68279 9.45448H7.8343C8.11345 9.45448 8.33973 9.68076 8.33973 9.95991V18.9789Z" fill="white"/>
<path d="M6.75855 8.6043C5.62972 8.6043 4.7146 7.68919 4.7146 6.56036C4.7146 5.43153 5.62972 4.51641 6.75855 4.51641C7.88738 4.51641 8.80249 5.43153 8.80249 6.56036C8.80249 7.68919 7.88743 8.6043 6.75855 8.6043Z" fill="white"/>
</svg>
