<svg width="16" height="16" viewBox="0 0 16 16" fill="none" xmlns="http://www.w3.org/2000/svg">
<g clip-path="url(#clip0)">
<path d="M9.88086 2.6875L1.07744 11.4916C1.03315 11.536 1.00117 11.5921 0.985939 11.6524L0.0101637 15.5689C-0.0190245 15.6868 0.0156207 15.8122 0.101662 15.8982C0.166765 15.9633 0.255472 15.9994 0.346209 15.9994C0.374001 15.9994 0.402428 15.9959 0.430094 15.989L4.34665 15.0131C4.40769 14.9978 4.46315 14.966 4.50744 14.9217L13.3116 6.11826L9.88086 2.6875Z" fill="#C4C4C4"/>
<path d="M15.4941 1.48732L14.5142 0.507354C13.8592 -0.147605 12.7177 -0.14697 12.0635 0.507354L10.8631 1.70775L14.2937 5.13839L15.4941 3.93799C15.8213 3.61095 16.0015 3.17567 16.0015 2.71272C16.0015 2.24976 15.8213 1.81448 15.4941 1.48732Z" fill="#C4C4C4"/>
</g>
<defs>
<clipPath id="clip0">
<rect width="16" height="16" fill="white"/>
</clipPath>
</defs>
</svg>
