<svg width="12" height="12" viewBox="0 0 12 12" fill="none" xmlns="http://www.w3.org/2000/svg">
<g clip-path="url(#clip0)">
<path d="M7.41065 2.01562L0.808079 8.61867C0.774861 8.65198 0.750876 8.69405 0.739454 8.73926L0.00762279 11.6767C-0.0142684 11.7651 0.0117155 11.8591 0.0762469 11.9237C0.125074 11.9725 0.191604 11.9995 0.259657 11.9995C0.280501 11.9995 0.301821 11.997 0.32257 11.9917L3.25999 11.2598C3.30577 11.2484 3.34736 11.2245 3.38058 11.1913L9.98372 4.5887L7.41065 2.01562Z" fill="black"/>
<path d="M11.6205 1.11542L10.8855 0.380443C10.3943 -0.110776 9.53816 -0.1103 9.04752 0.380443L8.14722 1.28074L10.7202 3.85372L11.6205 2.95342C11.8659 2.70814 12.001 2.38168 12.001 2.03446C12.001 1.68725 11.8659 1.36079 11.6205 1.11542Z" fill="black"/>
</g>
<defs>
<clipPath id="clip0">
<rect width="12" height="12" fill="white"/>
</clipPath>
</defs>
</svg>
