<svg width="24" height="24" viewBox="0 0 24 24" fill="none" xmlns="http://www.w3.org/2000/svg">
<g clip-path="url(#clip0)">
<path d="M12.0008 0.00115967C5.37314 0.00115967 0 5.37356 0 11.9996C0 16.9143 2.9543 21.1353 7.18338 22.991C7.14758 22.1524 7.17554 21.1477 7.39035 20.2363C7.62232 19.2616 8.93605 13.6966 8.93605 13.6966C8.93605 13.6966 8.55313 12.9304 8.55313 11.7988C8.55313 10.0201 9.58355 8.69235 10.8661 8.69235C11.9588 8.69235 12.4849 9.51266 12.4849 10.4937C12.4849 11.5902 11.786 13.2324 11.4264 14.7519C11.1261 16.0251 12.0646 17.0637 13.3192 17.0637C15.5933 17.0637 17.1249 14.1425 17.1249 10.6835C17.1249 8.05419 15.3535 6.08557 12.1316 6.08557C8.49082 6.08557 6.22451 8.79975 6.22451 11.8314C6.22451 12.8774 6.53119 13.6141 7.01527 14.1845C7.23636 14.4476 7.26747 14.5534 7.18653 14.8539C7.12891 15.0749 6.99814 15.6064 6.94212 15.8165C6.86263 16.1209 6.61677 16.229 6.3413 16.1178C4.66498 15.4321 3.88511 13.5977 3.88511 11.5334C3.88511 8.12419 6.76002 4.03756 12.46 4.03756C17.0423 4.03756 20.0589 7.35181 20.0589 10.9107C20.0589 15.618 17.4409 19.1355 13.5823 19.1355C12.2872 19.1355 11.0684 18.4342 10.6513 17.6388C10.6513 17.6388 9.95399 20.4044 9.80774 20.9375C9.55245 21.862 9.05434 22.7878 8.59977 23.5084C9.67852 23.8268 10.8194 24.0003 12.0008 24.0003C18.6285 24.0003 24 18.628 24 11.9995C24 5.37356 18.6285 0.00115967 12.0008 0.00115967Z" fill="black"/>
</g>
<defs>
<clipPath id="clip0">
<rect width="24" height="24" fill="white"/>
</clipPath>
</defs>
</svg>
