<svg width="13" height="13" viewBox="0 0 13 13" fill="none" xmlns="http://www.w3.org/2000/svg">
<path d="M11.7351 5.99111H7.00589V1.26182C7.00589 0.873437 6.69063 0.558203 6.30216 0.558203C5.91378 0.558203 5.59854 0.873449 5.59854 1.26182V5.99111H0.869245C0.48087 5.99111 0.165625 6.30636 0.165625 6.69473C0.165625 7.08321 0.480859 7.39846 0.869245 7.39846H5.59854V12.1276C5.59854 12.5161 5.91377 12.8314 6.30216 12.8314C6.69064 12.8314 7.00589 12.5161 7.00589 12.1276V7.39846H11.7351C12.1236 7.39846 12.4388 7.08322 12.4388 6.69473C12.4388 6.30635 12.1235 5.99111 11.7351 5.99111Z" fill="#0671E3" stroke="#0671E3" stroke-width="0.2"/>
</svg>
